<?xml version="1.0" encoding="UTF-8" standalone="no"?><svg xmlns="http://www.w3.org/2000/svg" xmlns:xlink="http://www.w3.org/1999/xlink" contentStyleType="text/css" height="910px" preserveAspectRatio="none" style="width:1298px;height:910px;background:#FFFFFF;" version="1.1" viewBox="0 0 1298 910" width="1298px" zoomAndPan="magnify"><defs/><g><rect fill="none" height="282.4844" style="stroke:#000000;stroke-width:1.5;" width="698" x="155" y="112.1094"/><rect fill="none" height="251.1738" style="stroke:#000000;stroke-width:1.5;" width="678" x="165" y="136.4199"/><rect fill="none" height="103.9316" style="stroke:#000000;stroke-width:1.5;" width="658" x="175" y="160.7305"/><rect fill="none" height="101.9316" style="stroke:#000000;stroke-width:1.5;" width="254" x="175" y="278.6621"/><rect fill="none" height="449.0371" style="stroke:#000000;stroke-width:1.5;" width="1127" x="165" y="408.5938"/><rect fill="none" height="375.416" style="stroke:#000000;stroke-width:1.5;" width="1107" x="175" y="475.2148"/><line style="stroke:#181818;stroke-width:0.5;stroke-dasharray:5.0,5.0;" x1="26" x2="26" y1="36.4883" y2="874.6309"/><line style="stroke:#181818;stroke-width:0.5;stroke-dasharray:5.0,5.0;" x1="222" x2="222" y1="36.4883" y2="874.6309"/><line style="stroke:#181818;stroke-width:0.5;stroke-dasharray:5.0,5.0;" x1="828" x2="828" y1="36.4883" y2="874.6309"/><line style="stroke:#181818;stroke-width:0.5;stroke-dasharray:5.0,5.0;" x1="939.5" x2="939.5" y1="36.4883" y2="874.6309"/><rect fill="#E2E2F0" height="30.4883" rx="2.5" ry="2.5" style="stroke:#181818;stroke-width:0.5;" width="42" x="5" y="5"/><text fill="#000000" font-family="sans-serif" font-size="14" lengthAdjust="spacing" textLength="28" x="12" y="25.5352">App</text><rect fill="#E2E2F0" height="30.4883" rx="2.5" ry="2.5" style="stroke:#181818;stroke-width:0.5;" width="42" x="5" y="873.6309"/><text fill="#000000" font-family="sans-serif" font-size="14" lengthAdjust="spacing" textLength="28" x="12" y="894.166">App</text><rect fill="#E2E2F0" height="30.4883" rx="2.5" ry="2.5" style="stroke:#181818;stroke-width:0.5;" width="74" x="185" y="5"/><text fill="#000000" font-family="sans-serif" font-size="14" lengthAdjust="spacing" textLength="60" x="192" y="25.5352">Jdrawing</text><rect fill="#E2E2F0" height="30.4883" rx="2.5" ry="2.5" style="stroke:#181818;stroke-width:0.5;" width="74" x="185" y="873.6309"/><text fill="#000000" font-family="sans-serif" font-size="14" lengthAdjust="spacing" textLength="60" x="192" y="894.166">Jdrawing</text><rect fill="#E2E2F0" height="30.4883" rx="2.5" ry="2.5" style="stroke:#181818;stroke-width:0.5;" width="106" x="775" y="5"/><text fill="#000000" font-family="sans-serif" font-size="14" lengthAdjust="spacing" textLength="92" x="782" y="25.5352">ShapeFactory</text><rect fill="#E2E2F0" height="30.4883" rx="2.5" ry="2.5" style="stroke:#181818;stroke-width:0.5;" width="106" x="775" y="873.6309"/><text fill="#000000" font-family="sans-serif" font-size="14" lengthAdjust="spacing" textLength="92" x="782" y="894.166">ShapeFactory</text><rect fill="#E2E2F0" height="30.4883" rx="2.5" ry="2.5" style="stroke:#181818;stroke-width:0.5;" width="57" x="911.5" y="5"/><text fill="#000000" font-family="sans-serif" font-size="14" lengthAdjust="spacing" textLength="43" x="918.5" y="25.5352">Group</text><rect fill="#E2E2F0" height="30.4883" rx="2.5" ry="2.5" style="stroke:#181818;stroke-width:0.5;" width="57" x="911.5" y="873.6309"/><text fill="#000000" font-family="sans-serif" font-size="14" lengthAdjust="spacing" textLength="43" x="918.5" y="894.166">Group</text><polygon fill="#181818" points="210,63.7988,220,67.7988,210,71.7988,214,67.7988" style="stroke:#181818;stroke-width:1.0;"/><line style="stroke:#181818;stroke-width:1.0;" x1="26" x2="216" y1="67.7988" y2="67.7988"/><text fill="#000000" font-family="sans-serif" font-size="13" font-weight="bold" lengthAdjust="spacing" textLength="9" x="33" y="63.0566">1</text><text fill="#000000" font-family="sans-serif" font-size="13" lengthAdjust="spacing" textLength="159" x="46" y="63.0566">create(String frameName)</text><polygon fill="#181818" points="816,93.1094,826,97.1094,816,101.1094,820,97.1094" style="stroke:#181818;stroke-width:1.0;"/><line style="stroke:#181818;stroke-width:1.0;" x1="222" x2="822" y1="97.1094" y2="97.1094"/><text fill="#000000" font-family="sans-serif" font-size="13" font-weight="bold" lengthAdjust="spacing" textLength="9" x="229" y="92.3672">2</text><text fill="#000000" font-family="sans-serif" font-size="13" lengthAdjust="spacing" textLength="46" x="242" y="92.3672">create()</text><path d="M155,112.1094 L415,112.1094 L415,119.4199 L405,129.4199 L155,129.4199 L155,112.1094 " fill="#EEEEEE" style="stroke:#000000;stroke-width:1.5;"/><rect fill="none" height="282.4844" style="stroke:#000000;stroke-width:1.5;" width="698" x="155" y="112.1094"/><text fill="#000000" font-family="sans-serif" font-size="13" font-weight="bold" lengthAdjust="spacing" textLength="215" x="170" y="125.6777">mousePressed(MouseEvent evt)</text><path d="M165,136.4199 L239,136.4199 L239,143.7305 L229,153.7305 L165,153.7305 L165,136.4199 " fill="#EEEEEE" style="stroke:#000000;stroke-width:1.5;"/><rect fill="none" height="251.1738" style="stroke:#000000;stroke-width:1.5;" width="678" x="165" y="136.4199"/><text fill="#000000" font-family="sans-serif" font-size="13" font-weight="bold" lengthAdjust="spacing" textLength="29" x="180" y="149.9883">loop</text><text fill="#000000" font-family="sans-serif" font-size="11" font-weight="bold" lengthAdjust="spacing" textLength="97" x="254" y="149.0547">[shape in shapes]</text><path d="M175,160.7305 L237,160.7305 L237,168.041 L227,178.041 L175,178.041 L175,160.7305 " fill="#EEEEEE" style="stroke:#000000;stroke-width:1.5;"/><rect fill="none" height="103.9316" style="stroke:#000000;stroke-width:1.5;" width="658" x="175" y="160.7305"/><text fill="#000000" font-family="sans-serif" font-size="13" font-weight="bold" lengthAdjust="spacing" textLength="17" x="190" y="174.2988">alt</text><a href="condition" target="_top" title="condition" xlink:actuate="onRequest" xlink:href="condition" xlink:show="new" xlink:title="condition" xlink:type="simple"><text fill="#0000FF" font-family="sans-serif" font-size="11" font-weight="bold" lengthAdjust="spacing" text-decoration="underline" textLength="83" x="252" y="173.3652">shape is group</text></a><line style="stroke:#181818;stroke-width:1.0;stroke-dasharray:2.0,2.0;" x1="222" x2="264" y1="199.3516" y2="199.3516"/><line style="stroke:#181818;stroke-width:1.0;stroke-dasharray:2.0,2.0;" x1="264" x2="264" y1="199.3516" y2="212.3516"/><line style="stroke:#181818;stroke-width:1.0;stroke-dasharray:2.0,2.0;" x1="223" x2="264" y1="212.3516" y2="212.3516"/><polygon fill="#181818" points="233,208.3516,223,212.3516,233,216.3516,229,212.3516" style="stroke:#181818;stroke-width:1.0;"/><text fill="#000000" font-family="sans-serif" font-size="13" font-weight="bold" lengthAdjust="spacing" textLength="9" x="229" y="194.6094">3</text><text fill="#000000" font-family="sans-serif" font-size="13" lengthAdjust="spacing" textLength="552" x="242" y="194.6094">isClickedOnShape = isClickedOnGroup(mouseClickedX, mouseClickedY, groupSelected)</text><line style="stroke:#000000;stroke-width:1.0;stroke-dasharray:2.0,2.0;" x1="175" x2="833" y1="221.3516" y2="221.3516"/><line style="stroke:#181818;stroke-width:1.0;stroke-dasharray:2.0,2.0;" x1="222" x2="264" y1="243.6621" y2="243.6621"/><line style="stroke:#181818;stroke-width:1.0;stroke-dasharray:2.0,2.0;" x1="264" x2="264" y1="243.6621" y2="256.6621"/><line style="stroke:#181818;stroke-width:1.0;stroke-dasharray:2.0,2.0;" x1="223" x2="264" y1="256.6621" y2="256.6621"/><polygon fill="#181818" points="233,252.6621,223,256.6621,233,260.6621,229,256.6621" style="stroke:#181818;stroke-width:1.0;"/><text fill="#000000" font-family="sans-serif" font-size="13" font-weight="bold" lengthAdjust="spacing" textLength="9" x="229" y="238.9199">4</text><text fill="#000000" font-family="sans-serif" font-size="13" lengthAdjust="spacing" textLength="579" x="242" y="238.9199">isClickedOnShape = isClickedOnShapeExceptGroup(mouseClickedX, mouseClickedY, shape)</text><path d="M175,278.6621 L237,278.6621 L237,285.9727 L227,295.9727 L175,295.9727 L175,278.6621 " fill="#EEEEEE" style="stroke:#000000;stroke-width:1.5;"/><rect fill="none" height="101.9316" style="stroke:#000000;stroke-width:1.5;" width="254" x="175" y="278.6621"/><text fill="#000000" font-family="sans-serif" font-size="13" font-weight="bold" lengthAdjust="spacing" textLength="17" x="190" y="292.2305">alt</text><a href="condition" target="_top" title="condition" xlink:actuate="onRequest" xlink:href="condition" xlink:show="new" xlink:title="condition" xlink:type="simple"><text fill="#0000FF" font-family="sans-serif" font-size="11" font-weight="bold" lengthAdjust="spacing" text-decoration="underline" textLength="145" x="252" y="291.2969">lastShapeSelected == null</text></a><line style="stroke:#181818;stroke-width:1.0;stroke-dasharray:2.0,2.0;" x1="222" x2="264" y1="317.2832" y2="317.2832"/><line style="stroke:#181818;stroke-width:1.0;stroke-dasharray:2.0,2.0;" x1="264" x2="264" y1="317.2832" y2="330.2832"/><line style="stroke:#181818;stroke-width:1.0;stroke-dasharray:2.0,2.0;" x1="223" x2="264" y1="330.2832" y2="330.2832"/><polygon fill="#181818" points="233,326.2832,223,330.2832,233,334.2832,229,330.2832" style="stroke:#181818;stroke-width:1.0;"/><text fill="#000000" font-family="sans-serif" font-size="13" font-weight="bold" lengthAdjust="spacing" textLength="9" x="229" y="312.541">5</text><text fill="#000000" font-family="sans-serif" font-size="13" lengthAdjust="spacing" textLength="175" x="242" y="312.541">xPressed = mouseClickedX;</text><line style="stroke:#181818;stroke-width:1.0;stroke-dasharray:2.0,2.0;" x1="222" x2="264" y1="359.5938" y2="359.5938"/><line style="stroke:#181818;stroke-width:1.0;stroke-dasharray:2.0,2.0;" x1="264" x2="264" y1="359.5938" y2="372.5938"/><line style="stroke:#181818;stroke-width:1.0;stroke-dasharray:2.0,2.0;" x1="223" x2="264" y1="372.5938" y2="372.5938"/><polygon fill="#181818" points="233,368.5938,223,372.5938,233,376.5938,229,372.5938" style="stroke:#181818;stroke-width:1.0;"/><text fill="#000000" font-family="sans-serif" font-size="13" font-weight="bold" lengthAdjust="spacing" textLength="9" x="229" y="354.8516">6</text><text fill="#000000" font-family="sans-serif" font-size="13" lengthAdjust="spacing" textLength="174" x="242" y="354.8516">yPressed = mouseClickedY;</text><path d="M165,408.5938 L433,408.5938 L433,415.9043 L423,425.9043 L165,425.9043 L165,408.5938 " fill="#EEEEEE" style="stroke:#000000;stroke-width:1.5;"/><rect fill="none" height="449.0371" style="stroke:#000000;stroke-width:1.5;" width="1127" x="165" y="408.5938"/><text fill="#000000" font-family="sans-serif" font-size="13" font-weight="bold" lengthAdjust="spacing" textLength="223" x="180" y="422.1621">mouseReleased(MouseEvent evt)</text><line style="stroke:#181818;stroke-width:1.0;stroke-dasharray:2.0,2.0;" x1="222" x2="264" y1="447.2148" y2="447.2148"/><line style="stroke:#181818;stroke-width:1.0;stroke-dasharray:2.0,2.0;" x1="264" x2="264" y1="447.2148" y2="460.2148"/><line style="stroke:#181818;stroke-width:1.0;stroke-dasharray:2.0,2.0;" x1="223" x2="264" y1="460.2148" y2="460.2148"/><polygon fill="#181818" points="233,456.2148,223,460.2148,233,464.2148,229,460.2148" style="stroke:#181818;stroke-width:1.0;"/><text fill="#000000" font-family="sans-serif" font-size="13" font-weight="bold" lengthAdjust="spacing" textLength="9" x="229" y="442.4727">7</text><text fill="#000000" font-family="sans-serif" font-size="13" lengthAdjust="spacing" textLength="89" x="242" y="442.4727">repaintGraph()</text><path d="M175,475.2148 L237,475.2148 L237,482.5254 L227,492.5254 L175,492.5254 L175,475.2148 " fill="#EEEEEE" style="stroke:#000000;stroke-width:1.5;"/><rect fill="none" height="375.416" style="stroke:#000000;stroke-width:1.5;" width="1107" x="175" y="475.2148"/><text fill="#000000" font-family="sans-serif" font-size="13" font-weight="bold" lengthAdjust="spacing" textLength="17" x="190" y="488.7832">alt</text><a href="condition" target="_top" title="condition" xlink:actuate="onRequest" xlink:href="condition" xlink:show="new" xlink:title="condition" xlink:type="simple"><text fill="#0000FF" font-family="sans-serif" font-size="11" font-weight="bold" lengthAdjust="spacing" text-decoration="underline" textLength="118" x="252" y="487.8496">checkbox.isSelected()</text></a><line style="stroke:#181818;stroke-width:1.0;stroke-dasharray:2.0,2.0;" x1="222" x2="264" y1="513.8359" y2="513.8359"/><line style="stroke:#181818;stroke-width:1.0;stroke-dasharray:2.0,2.0;" x1="264" x2="264" y1="513.8359" y2="526.8359"/><line style="stroke:#181818;stroke-width:1.0;stroke-dasharray:2.0,2.0;" x1="223" x2="264" y1="526.8359" y2="526.8359"/><polygon fill="#181818" points="233,522.8359,223,526.8359,233,530.8359,229,526.8359" style="stroke:#181818;stroke-width:1.0;"/><text fill="#000000" font-family="sans-serif" font-size="13" font-weight="bold" lengthAdjust="spacing" textLength="9" x="229" y="509.0938">8</text><text fill="#000000" font-family="sans-serif" font-size="13" lengthAdjust="spacing" textLength="89" x="242" y="509.0938">repaintGraph()</text><polygon fill="#181818" points="816,552.1465,826,556.1465,816,560.1465,820,556.1465" style="stroke:#181818;stroke-width:1.0;"/><line style="stroke:#181818;stroke-width:1.0;" x1="222" x2="822" y1="556.1465" y2="556.1465"/><text fill="#000000" font-family="sans-serif" font-size="13" font-weight="bold" lengthAdjust="spacing" textLength="9" x="229" y="551.4043">9</text><text fill="#000000" font-family="sans-serif" font-size="13" lengthAdjust="spacing" textLength="268" x="242" y="551.4043">shapeFactory.getShape(TYPE_GROUP, 0, 0);</text><polygon fill="#181818" points="928,581.457,938,585.457,928,589.457,932,585.457" style="stroke:#181818;stroke-width:1.0;"/><line style="stroke:#181818;stroke-width:1.0;stroke-dasharray:2.0,2.0;" x1="828" x2="934" y1="585.457" y2="585.457"/><text fill="#000000" font-family="sans-serif" font-size="13" font-weight="bold" lengthAdjust="spacing" textLength="18" x="835" y="580.7148">10</text><text fill="#000000" font-family="sans-serif" font-size="13" lengthAdjust="spacing" textLength="66" x="857" y="580.7148">create(0,0)</text><line style="stroke:#181818;stroke-width:1.0;" x1="829" x2="839" y1="614.7676" y2="618.7676"/><line style="stroke:#181818;stroke-width:1.0;stroke-dasharray:2.0,2.0;" x1="828" x2="939" y1="614.7676" y2="614.7676"/><text fill="#000000" font-family="sans-serif" font-size="13" font-weight="bold" lengthAdjust="spacing" textLength="18" x="845" y="610.0254">11</text><text fill="#000000" font-family="sans-serif" font-size="13" lengthAdjust="spacing" textLength="4" x="867" y="610.0254"> </text><line style="stroke:#181818;stroke-width:1.0;" x1="223" x2="233" y1="644.0781" y2="648.0781"/><line style="stroke:#181818;stroke-width:1.0;stroke-dasharray:2.0,2.0;" x1="222" x2="827" y1="644.0781" y2="644.0781"/><text fill="#000000" font-family="sans-serif" font-size="13" font-weight="bold" lengthAdjust="spacing" textLength="18" x="239" y="639.3359">12</text><text fill="#000000" font-family="sans-serif" font-size="13" lengthAdjust="spacing" textLength="4" x="261" y="639.3359"> </text><polygon fill="#181818" points="928,669.3887,938,673.3887,928,677.3887,932,673.3887" style="stroke:#181818;stroke-width:1.0;"/><line style="stroke:#181818;stroke-width:1.0;stroke-dasharray:2.0,2.0;" x1="222" x2="934" y1="673.3887" y2="673.3887"/><text fill="#000000" font-family="sans-serif" font-size="13" font-weight="bold" lengthAdjust="spacing" textLength="18" x="229" y="668.6465">13</text><text fill="#000000" font-family="sans-serif" font-size="13" lengthAdjust="spacing" textLength="272" x="251" y="668.6465">setCoordMinMax(minX, minY, maxX, maxY)</text><line style="stroke:#181818;stroke-width:1.0;stroke-dasharray:2.0,2.0;" x1="940" x2="982" y1="702.6992" y2="702.6992"/><line style="stroke:#181818;stroke-width:1.0;stroke-dasharray:2.0,2.0;" x1="982" x2="982" y1="702.6992" y2="715.6992"/><line style="stroke:#181818;stroke-width:1.0;stroke-dasharray:2.0,2.0;" x1="941" x2="982" y1="715.6992" y2="715.6992"/><polygon fill="#181818" points="951,711.6992,941,715.6992,951,719.6992,947,715.6992" style="stroke:#181818;stroke-width:1.0;"/><text fill="#000000" font-family="sans-serif" font-size="13" font-weight="bold" lengthAdjust="spacing" textLength="18" x="947" y="697.957">14</text><text fill="#000000" font-family="sans-serif" font-size="13" lengthAdjust="spacing" textLength="301" x="969" y="697.957">setXY(coordCenterGroupX, coordCenterGroupY);</text><line style="stroke:#181818;stroke-width:1.0;stroke-dasharray:2.0,2.0;" x1="222" x2="264" y1="745.0098" y2="745.0098"/><line style="stroke:#181818;stroke-width:1.0;stroke-dasharray:2.0,2.0;" x1="264" x2="264" y1="745.0098" y2="758.0098"/><line style="stroke:#181818;stroke-width:1.0;stroke-dasharray:2.0,2.0;" x1="223" x2="264" y1="758.0098" y2="758.0098"/><polygon fill="#181818" points="233,754.0098,223,758.0098,233,762.0098,229,758.0098" style="stroke:#181818;stroke-width:1.0;"/><text fill="#000000" font-family="sans-serif" font-size="13" font-weight="bold" lengthAdjust="spacing" textLength="18" x="229" y="740.2676">15</text><text fill="#000000" font-family="sans-serif" font-size="13" lengthAdjust="spacing" textLength="450" x="251" y="740.2676">addShapeToGroupIfShapeSelected(xReleased, yReleased, groupSelected)</text><line style="stroke:#181818;stroke-width:1.0;stroke-dasharray:2.0,2.0;" x1="222" x2="264" y1="787.3203" y2="787.3203"/><line style="stroke:#181818;stroke-width:1.0;stroke-dasharray:2.0,2.0;" x1="264" x2="264" y1="787.3203" y2="800.3203"/><line style="stroke:#181818;stroke-width:1.0;stroke-dasharray:2.0,2.0;" x1="223" x2="264" y1="800.3203" y2="800.3203"/><polygon fill="#181818" points="233,796.3203,223,800.3203,233,804.3203,229,800.3203" style="stroke:#181818;stroke-width:1.0;"/><text fill="#000000" font-family="sans-serif" font-size="13" font-weight="bold" lengthAdjust="spacing" textLength="18" x="229" y="782.5781">16</text><text fill="#000000" font-family="sans-serif" font-size="13" lengthAdjust="spacing" textLength="127" x="251" y="782.5781">draw(groupSelected)</text><line style="stroke:#181818;stroke-width:1.0;stroke-dasharray:2.0,2.0;" x1="222" x2="264" y1="829.6309" y2="829.6309"/><line style="stroke:#181818;stroke-width:1.0;stroke-dasharray:2.0,2.0;" x1="264" x2="264" y1="829.6309" y2="842.6309"/><line style="stroke:#181818;stroke-width:1.0;stroke-dasharray:2.0,2.0;" x1="223" x2="264" y1="842.6309" y2="842.6309"/><polygon fill="#181818" points="233,838.6309,223,842.6309,233,846.6309,229,842.6309" style="stroke:#181818;stroke-width:1.0;"/><text fill="#000000" font-family="sans-serif" font-size="13" font-weight="bold" lengthAdjust="spacing" textLength="18" x="229" y="824.8887">17</text><text fill="#000000" font-family="sans-serif" font-size="13" lengthAdjust="spacing" textLength="44" x="251" y="824.8887">repaint</text><!--MD5=[ae921c4fe6cb40480c6b1cc9806827a4]
@startuml
'https://plantuml.com/sequence-diagram

autonumber

App -> Jdrawing: create(String frameName)
Jdrawing -> ShapeFactory: create()
group mousePressed(MouseEvent evt)
    loop shape in shapes
        alt [condition shape is group]
            Jdrawing - -> Jdrawing: isClickedOnShape = isClickedOnGroup(mouseClickedX, mouseClickedY, groupSelected)
        else
            Jdrawing - -> Jdrawing: isClickedOnShape = isClickedOnShapeExceptGroup(mouseClickedX, mouseClickedY, shape)
        end
        alt [condition lastShapeSelected == null]
            Jdrawing - -> Jdrawing: xPressed = mouseClickedX;
            Jdrawing - -> Jdrawing: yPressed = mouseClickedY;
        end
    end loop
end group

group mouseReleased(MouseEvent evt)
    Jdrawing - -> Jdrawing: repaintGraph()
    alt [condition checkbox.isSelected()]
        Jdrawing - -> Jdrawing: repaintGraph()
        Jdrawing -> ShapeFactory: shapeFactory.getShape(TYPE_GROUP, 0, 0);
        ShapeFactory - -> Group: create(0,0)
        ShapeFactory \\- - Group
        Jdrawing \\- - ShapeFactory
        Jdrawing - -> Group: setCoordMinMax(minX, minY, maxX, maxY)
        Group - -> Group: setXY(coordCenterGroupX, coordCenterGroupY);
        Jdrawing - -> Jdrawing: addShapeToGroupIfShapeSelected(xReleased, yReleased, groupSelected)
        Jdrawing - -> Jdrawing: draw(groupSelected)
        Jdrawing - -> Jdrawing: repaint
    end


    end group

@enduml

@startuml

autonumber

App -> Jdrawing: create(String frameName)
Jdrawing -> ShapeFactory: create()
group mousePressed(MouseEvent evt)
    loop shape in shapes
        alt [condition shape is group]
            Jdrawing - -> Jdrawing: isClickedOnShape = isClickedOnGroup(mouseClickedX, mouseClickedY, groupSelected)
        else
            Jdrawing - -> Jdrawing: isClickedOnShape = isClickedOnShapeExceptGroup(mouseClickedX, mouseClickedY, shape)
        end
        alt [condition lastShapeSelected == null]
            Jdrawing - -> Jdrawing: xPressed = mouseClickedX;
            Jdrawing - -> Jdrawing: yPressed = mouseClickedY;
        end
    end loop
end group

group mouseReleased(MouseEvent evt)
    Jdrawing - -> Jdrawing: repaintGraph()
    alt [condition checkbox.isSelected()]
        Jdrawing - -> Jdrawing: repaintGraph()
        Jdrawing -> ShapeFactory: shapeFactory.getShape(TYPE_GROUP, 0, 0);
        ShapeFactory - -> Group: create(0,0)
        ShapeFactory \\- - Group
        Jdrawing \\- - ShapeFactory
        Jdrawing - -> Group: setCoordMinMax(minX, minY, maxX, maxY)
        Group - -> Group: setXY(coordCenterGroupX, coordCenterGroupY);
        Jdrawing - -> Jdrawing: addShapeToGroupIfShapeSelected(xReleased, yReleased, groupSelected)
        Jdrawing - -> Jdrawing: draw(groupSelected)
        Jdrawing - -> Jdrawing: repaint
    end


    end group

@enduml

PlantUML version 1.2022.7(Mon Aug 22 19:01:30 CEST 2022)
(GPL source distribution)
Java Runtime: OpenJDK Runtime Environment
JVM: OpenJDK 64-Bit Server VM
Default Encoding: UTF-8
Language: fr
Country: FR
--></g></svg>